# xmcd
#
# Track frame offsets: 
#        150
#        19500
#        32150
#        44850
#        62475
#        75425
#        86287
#        108650
#        122100
#        137550
#        147825
#        170400
#        192925
#        209657
#
# Disc length: 3106 seconds
#
# Revision: 2
# Processed by: cddbd v1.5.1PL0 Copyright (c) Steve Scherf et al.
# Submitted via: ExactAudioCopy v0.95a5
#
DISCID=c10c200e
DTITLE=Johnny Thompson Singers - The Most Beautiful Gospel-Songs Vol. 
DTITLE=1
DYEAR=1900
DGENRE=Gospel
TTITLE0=We Shall Overcome
TTITLE1=Joshua Fit The Battle Of Jericho
TTITLE2=Be Still My Soul
TTITLE3=Swing Low Sweet Chariot
TTITLE4=I'll Never Say No
TTITLE5=Joy To The World
TTITLE6=Jericho Road
TTITLE7=Old Time Religion
TTITLE8=Myself
TTITLE9=Go Tell It On The Mountain
TTITLE10=Who Shall Abide
TTITLE11=Lord I Want To Be A Christian
TTITLE12=Will The Circle Be Unbroken
TTITLE13=Oh Happy Day
EXTD=
EXTT0=
EXTT1=
EXTT2=
EXTT3=
EXTT4=
EXTT5=
EXTT6=
EXTT7=
EXTT8=
EXTT9=
EXTT10=
EXTT11=
EXTT12=
EXTT13=
PLAYORDER=
